Coordinates
version=1
nRows=5
nColumns=46
inDegrees=yes

Units are S.I. units (second, meters, Newtons, ...)
Angles are in degrees.

endheader
time	pelvis_tilt	pelvis_list	pelvis_rotation	pelvis_tx	pelvis_ty	pelvis_tz	bb_angle	bb_tx	bb_ty	bb_tz	hip_flexion_r	hip_adduction_r	hip_rotation_r	knee_angle_r	knee_angle_r_beta	ankle_angle_r	subtalar_angle_r	mtp_angle_r	crank_angle_r	hip_flexion_l	hip_adduction_l	hip_rotation_l	knee_angle_l	knee_angle_l_beta	ankle_angle_l	subtalar_angle_l	mtp_angle_l	crank_angle_l	lumbar_extension	lumbar_bending	lumbar_rotation	arm_flex_r	arm_add_r	arm_rot_r	elbow_flex_r	pro_sup_r	wrist_flex_r	wrist_dev_r	arm_flex_l	arm_add_l	arm_rot_l	elbow_flex_l	pro_sup_l	wrist_flex_l	wrist_dev_l
      7.50000000	    -22.18348133	     -5.21876589	     -6.26951392	      0.14431905	      1.07378524	     -0.23062617	      0.00000000	      0.50000000	      0.00000000	      0.25000000	     93.75051821	      4.39625377	      1.17618703	     98.81855756	      1.72470919	     -2.46569019	    -11.35545504	      0.00000000	      0.00000000	     46.62111305	    -12.53653758	     -5.61556467	     44.37125492	      0.77442449	    -31.88714665	    -18.00387594	      0.00000000	      0.00000000	    -61.52365901	     -0.23330001	      3.88334296	     89.42199189	    -13.26084893	     26.87300153	     72.51652936	     39.51927686	      0.00000000	      0.00000000	     85.07094495	    -13.10115808	      9.62163783	     72.55791670	     46.18069898	      0.00000000	      0.00000000
      7.50500000	    -22.29264204	     -5.08610387	     -6.09975379	      0.14388618	      1.07372421	     -0.23118823	      0.00000000	      0.50000000	      0.00000000	      0.25000000	     92.76585981	      4.38225832	      1.42887664	     96.76998100	      1.68895479	     -1.06216756	    -11.44195299	      0.00000000	      0.00000000	     47.57523315	    -12.24308477	     -5.02795467	     46.75086531	      0.81595653	    -31.83100146	    -18.93064200	      0.00000000	      0.00000000	    -61.56334013	     -0.31123047	      3.49969078	     89.42392737	    -13.25472136	     26.66274638	     72.76786527	     39.52360664	      0.00000000	      0.00000000	     85.16708361	    -13.02325524	      9.51915811	     72.85513403	     46.23111033	      0.00000000	      0.00000000
      7.51000000	    -22.51829462	     -5.12852271	     -5.82394789	      0.14349617	      1.07329077	     -0.23209241	      0.00000000	      0.50000000	      0.00000000	      0.25000000	     91.74508790	      4.20791002	      1.49593893	     94.55866116	      1.65035997	      0.43102106	    -11.27074715	      0.00000000	      0.00000000	     48.83754002	    -12.02499986	     -4.28751608	     49.35624849	      0.86142904	    -31.79915279	    -19.89713000	      0.00000000	      0.00000000	    -61.54701522	     -0.03342530	      3.42387394	     89.41552683	    -13.18463559	     26.36919187	     73.17378422	     39.53296490	      0.00000000	      0.00000000	     85.22203425	    -13.07579283	      9.31103677	     73.41466656	     46.32460527	      0.00000000	      0.00000000
      7.51500000	    -22.72183255	     -5.05138003	     -5.44800404	      0.14324772	      1.07263917	     -0.23303396	      0.00000000	      0.50000000	      0.00000000	      0.25000000	     90.62402181	      3.87706834	      1.58569927	     92.23916819	      1.60987718	      1.68076997	    -11.32343991	      0.00000000	      0.00000000	     50.13003686	    -11.65804376	     -3.58514612	     52.01528558	      0.90783799	    -31.57051649	    -20.48638539	      0.00000000	      0.00000000	    -61.48863335	      0.25366611	      3.09354446	     89.38300563	    -12.99296279	     25.94880680	     73.65958461	     39.48336787	      0.00000000	      0.00000000	     84.88221565	    -13.26879243	      9.04147021	     74.52427419	     46.55050732	      0.00000000	      0.00000000
      7.52000000	    -22.74596417	     -4.73482491	     -5.24669461	      0.14328119	      1.07232348	     -0.23372107	      0.00000000	      0.50000000	      0.00000000	      0.25000000	     89.28425031	      3.72086536	      1.92599517	     89.77350640	      1.56684327	      2.46053511	    -11.66903018	      0.00000000	      0.00000000	     51.13116274	    -11.28175416	     -3.30617310	     54.65241084	      0.95386451	    -31.24232722	    -21.03274480	      0.00000000	      0.00000000	    -61.53757145	      0.13718420	      2.61100685	     89.36816121	    -12.95808158	     25.83115703	     73.75596270	     39.46712777	      0.00000000	      0.00000000	     84.98251485	    -13.34469950	      9.03420819	     74.79091053	     46.61075678	      0.00000000	      0.00000000
